<svg width="180" height="52" viewBox="0 0 180 52" fill="none" xmlns="http://www.w3.org/2000/svg">
<path d="M173.095 52H6.6575C2.99754 52 0 49.0734 0 45.5V6.5C0 2.92663 2.99754 2.74817e-06 6.6575 2.74817e-06H173.095C176.755 2.74817e-06 179.753 2.92663 179.753 6.5V45.5C179.753 49.0734 176.755 52 173.095 52Z" fill="black"/>
<path d="M173.333 1.04162C176.42 1.04162 178.932 3.4905 178.932 6.5V45.5C178.932 48.5095 176.42 50.9584 173.333 50.9584H6.66667C3.58 50.9584 1.06833 48.5095 1.06833 45.5V6.5C1.06833 3.4905 3.58 1.04162 6.66667 1.04162H173.333ZM173.333 -1.976e-06H6.66667C3.00167 -1.976e-06 0 2.92662 0 6.5V45.5C0 49.0734 3.00167 52 6.66667 52H173.333C176.998 52 180 49.0734 180 45.5V6.5C180 2.92662 176.998 -1.976e-06 173.333 -1.976e-06Z" fill="#A6A6A6"/>
<path d="M25.48 39.02L12.88 37.2V26.56H25.48V39.02ZM25.48 25.58H12.88V15.5L25.48 13.68V25.58ZM42.7 41.4L26.46 39.02V26.56H42.7V41.4ZM42.7 25.58H26.46V13.68L42.7 11.3V25.58Z" fill="white"/>
<path d="M64.3998 19.28C63.8398 19.56 62.5799 19.84 61.1799 19.84C59.6399 19.84 58.2399 19.42 57.2599 18.44C56.4199 17.6 55.8599 16.2 55.8599 14.52C55.8599 11.44 57.9599 9.06001 61.4599 9.06001C62.7199 9.06001 63.5599 9.34001 64.1199 9.48001L63.8399 10.6C63.2799 10.32 62.5798 10.18 61.5998 10.18C59.0798 10.18 57.3998 11.72 57.3998 14.38C57.3998 17.04 58.9399 18.58 61.4599 18.58C62.2999 18.58 62.9999 18.44 63.2799 18.3V15.22H61.1799V14.1H64.5399V19.28H64.3998Z" fill="white"/>
<path d="M67.2 16.2C67.2 18.02 68.46 18.86 69.72 18.86C70.7 18.86 71.26 18.72 71.82 18.44L72.1 19.42C71.68 19.7 70.84 19.84 69.58 19.84C67.34 19.84 65.94 18.3 65.94 16.06C65.94 13.82 67.2 12 69.44 12C71.82 12 72.52 14.1 72.52 15.5C72.52 15.78 72.52 16.06 72.52 16.2H67.2ZM71.26 15.22C71.26 14.38 70.84 12.98 69.44 12.98C68.04 12.98 67.48 14.24 67.34 15.22H71.26Z" fill="white"/>
<path d="M75.88 10.04V12.14H77.84V13.12H75.88V17.18C75.88 18.16 76.16 18.58 76.86 18.58C77.28 18.58 77.42 18.58 77.7 18.44V19.42C77.42 19.56 77 19.56 76.44 19.56C75.74 19.56 75.32 19.42 75.04 19C74.62 18.58 74.48 17.88 74.48 17.04V12.98H73.36V12H74.48V10.18L75.88 10.04Z" fill="white"/>
<path d="M84.14 10.04C84.14 10.46 83.86 10.88 83.3 10.88C82.88 10.88 82.46 10.46 82.46 10.04C82.46 9.62001 82.88 9.2 83.3 9.2C83.72 9.2 84.14 9.62001 84.14 10.04ZM82.6 19.7V12.14H84V19.7H82.6Z" fill="white"/>
<path d="M87.78 10.04V12.14H89.74V13.12H87.78V17.18C87.78 18.16 88.06 18.58 88.76 18.58C89.18 18.58 89.32 18.58 89.6 18.44V19.42C89.32 19.56 88.9 19.56 88.34 19.56C87.64 19.56 87.22 19.42 86.94 19C86.52 18.58 86.38 17.88 86.38 17.04V12.98H85.26V12H86.38V10.18L87.78 10.04Z" fill="white"/>
<path d="M101.22 15.92C101.22 18.72 99.26 19.98 97.44 19.98C95.48 19.98 93.8 18.44 93.8 16.06C93.8 13.54 95.48 12 97.44 12C99.82 12 101.22 13.54 101.22 15.92ZM95.34 15.92C95.34 17.6 96.32 18.86 97.58 18.86C98.84 18.86 99.82 17.6 99.82 15.92C99.82 14.66 99.12 12.98 97.58 12.98C96.04 12.98 95.34 14.52 95.34 15.92Z" fill="white"/>
<path d="M102.9 14.24C102.9 13.4 102.9 12.84 102.9 12.14H104.16L104.3 13.4C104.72 12.7 105.56 12 106.82 12C107.8 12 109.48 12.56 109.48 15.22V19.7H108.08V15.36C108.08 14.1 107.66 13.12 106.4 13.12C105.56 13.12 104.86 13.82 104.58 14.52C104.58 14.66 104.44 14.94 104.44 15.22V19.7H103.04V14.24H102.9Z" fill="white"/>
<path d="M59.5 42.38L55.72 27.12H57.82L59.64 34.82C60.06 36.78 60.48 38.6 60.76 40.14C61.04 38.6 61.46 36.78 62.02 34.82L63.98 27.12H66.08L67.9 34.82C68.32 36.64 68.74 38.46 69.02 40C69.3 38.32 69.72 36.64 70.28 34.68L72.24 26.98H74.2L69.86 42.24H67.76L65.8 34.26C65.38 32.3 64.96 30.76 64.82 29.22C64.54 30.76 64.26 32.16 63.7 34.26L61.6 42.24H59.5V42.38Z" fill="white"/>
<path d="M77.7 28.24C77.7 28.94 77.28 29.5 76.44 29.5C75.74 29.5 75.18 28.94 75.18 28.24C75.18 27.54 75.74 26.98 76.44 26.98C77.28 27.12 77.7 27.54 77.7 28.24ZM75.46 42.38V31.46H77.42V42.38H75.46Z" fill="white"/>
<path d="M79.94 34.4C79.94 33.28 79.94 32.3 79.8 31.46H81.62L81.76 33.28C82.32 32.3 83.58 31.18 85.4 31.18C86.94 31.18 89.18 32.02 89.18 35.8V42.38H87.22V36.08C87.22 34.26 86.52 32.86 84.7 32.86C83.44 32.86 82.32 33.84 82.04 34.96C81.9 35.24 81.9 35.52 81.9 35.94V42.52H79.94V34.4Z" fill="white"/>
<path d="M101.64 26.28V39.58C101.64 40.56 101.64 41.68 101.78 42.38H99.96L99.82 40.42C99.26 41.68 97.86 42.52 96.18 42.52C93.52 42.52 91.56 40.28 91.56 36.92C91.56 33.28 93.8 31.04 96.46 31.04C98.14 31.04 99.26 31.88 99.68 32.72V26.14H101.64V26.28ZM99.68 35.8C99.68 35.52 99.68 35.24 99.54 34.96C99.26 33.7 98.14 32.72 96.74 32.72C94.64 32.72 93.52 34.54 93.52 36.92C93.52 39.16 94.64 40.98 96.74 40.98C98 40.98 99.26 40.14 99.68 38.6C99.68 38.32 99.82 38.04 99.82 37.76V35.8H99.68Z" fill="white"/>
<path d="M114.1 36.78C114.1 40.84 111.3 42.66 108.64 42.66C105.7 42.66 103.46 40.42 103.46 37.06C103.46 33.42 105.84 31.18 108.92 31.18C112 31.18 114.1 33.42 114.1 36.78ZM105.56 36.92C105.56 39.3 106.96 41.12 108.92 41.12C110.74 41.12 112.28 39.3 112.28 36.92C112.28 35.1 111.3 32.72 109.06 32.72C106.54 32.58 105.56 34.82 105.56 36.92Z" fill="white"/>
<path d="M116.62 31.32L118.02 36.92C118.3 38.18 118.58 39.3 118.86 40.42C119.14 39.3 119.42 38.18 119.84 36.92L121.66 31.32H123.34L125.02 36.78C125.44 38.04 125.72 39.3 126 40.42C126.14 39.3 126.42 38.18 126.84 36.92L128.38 31.46H130.34L126.84 42.38H125.02L123.34 37.2C122.92 35.94 122.64 34.96 122.36 33.56C122.08 34.82 121.8 35.94 121.38 37.2L119.56 42.38H117.88L114.66 31.46H116.62V31.32Z" fill="white"/>
<path d="M131.88 40.28C132.44 40.7 133.56 41.12 134.54 41.12C135.94 41.12 136.64 40.42 136.64 39.44C136.64 38.46 136.08 37.9 134.68 37.48C132.72 36.78 131.74 35.66 131.74 34.4C131.74 32.58 133.14 31.18 135.52 31.18C136.64 31.18 137.62 31.46 138.18 31.88L137.62 33.28C137.2 33 136.36 32.58 135.38 32.58C134.26 32.58 133.56 33.28 133.56 34.12C133.56 34.96 134.26 35.38 135.66 35.94C137.48 36.64 138.46 37.62 138.46 39.3C138.46 41.26 136.92 42.52 134.4 42.52C133.14 42.52 132.16 42.24 131.32 41.82L131.88 40.28Z" fill="white"/>
<path d="M147.7 29.5L145.18 30.9L144.76 29.36L147.98 27.68H149.66V42.38H147.7V29.5Z" fill="white"/>
<path d="M163.38 34.82C163.38 39.86 161.56 42.52 158.34 42.52C155.54 42.52 153.58 39.86 153.44 34.96C153.44 30.06 155.54 27.26 158.48 27.26C161.7 27.4 163.38 30.2 163.38 34.82ZM155.4 35.1C155.4 38.88 156.52 41.12 158.34 41.12C160.3 41.12 161.28 38.74 161.28 34.96C161.28 31.32 160.3 28.94 158.34 28.94C156.66 28.94 155.4 31.04 155.4 35.1Z" fill="white"/>
</svg>
